<?xml version="1.0" encoding="UTF-8" standalone="no"?>
<!DOCTYPE svg PUBLIC "-//W3C//DTD SVG 1.1//EN"
 "http://www.w3.org/Graphics/SVG/1.1/DTD/svg11.dtd">
<!-- Generated by graphviz version 5.0.0 (20220707.1540)
 -->
<!-- Title: dependencies Pages: 1 -->
<svg width="818pt" height="174pt"
 viewBox="0.00 0.00 818.00 173.80" xmlns="http://www.w3.org/2000/svg" xmlns:xlink="http://www.w3.org/1999/xlink">
<g id="graph0" class="graph" transform="scale(1 1) rotate(0) translate(4 169.8)">
<title>dependencies</title>
<polygon fill="white" stroke="transparent" points="-4,4 -4,-169.8 814,-169.8 814,4 -4,4"/>
<text text-anchor="middle" x="405" y="-8.2" font-family="sans-serif" font-size="14.00">dependencies</text>
<g id="clust1" class="cluster">
<title>cluster_AppModule</title>
<polygon fill="none" stroke="black" stroke-dasharray="1,5" points="8,-32.8 8,-157.8 802,-157.8 802,-32.8 8,-32.8"/>
</g>
<g id="clust3" class="cluster">
<title>cluster_AppModule_imports</title>
<polygon fill="none" stroke="black" points="16,-40.8 16,-92.8 794,-92.8 794,-40.8 16,-40.8"/>
</g>
<!-- AuthModule -->
<g id="node1" class="node">
<title>AuthModule</title>
<polygon fill="#8dd3c7" stroke="black" points="785.55,-84.8 782.55,-88.8 761.55,-88.8 758.55,-84.8 698.45,-84.8 698.45,-48.8 785.55,-48.8 785.55,-84.8"/>
<text text-anchor="middle" x="742" y="-62.6" font-family="Times,serif" font-size="14.00">AuthModule</text>
</g>
<!-- AppModule -->
<g id="node8" class="node">
<title>AppModule</title>
<polygon fill="#8dd3c7" stroke="black" points="446.66,-149.8 443.66,-153.8 422.66,-153.8 419.66,-149.8 363.34,-149.8 363.34,-113.8 446.66,-113.8 446.66,-149.8"/>
<text text-anchor="middle" x="405" y="-127.6" font-family="Times,serif" font-size="14.00">AppModule</text>
</g>
<!-- AuthModule&#45;&gt;AppModule -->
<g id="edge1" class="edge">
<title>AuthModule&#45;&gt;AppModule</title>
<path fill="none" stroke="black" d="M742,-85.09C742,-107.01 742,-140.8 742,-140.8 742,-140.8 457,-140.8 457,-140.8"/>
<polygon fill="black" stroke="black" points="457,-137.3 447,-140.8 457,-144.3 457,-137.3"/>
</g>
<!-- ChoresModule -->
<g id="node2" class="node">
<title>ChoresModule</title>
<polygon fill="#8dd3c7" stroke="black" points="680.71,-84.8 677.71,-88.8 656.71,-88.8 653.71,-84.8 581.29,-84.8 581.29,-48.8 680.71,-48.8 680.71,-84.8"/>
<text text-anchor="middle" x="631" y="-62.6" font-family="Times,serif" font-size="14.00">ChoresModule</text>
</g>
<!-- ChoresModule&#45;&gt;AppModule -->
<g id="edge2" class="edge">
<title>ChoresModule&#45;&gt;AppModule</title>
<path fill="none" stroke="black" d="M631,-84.91C631,-104.14 631,-131.8 631,-131.8 631,-131.8 456.72,-131.8 456.72,-131.8"/>
<polygon fill="black" stroke="black" points="456.72,-128.3 446.72,-131.8 456.72,-135.3 456.72,-128.3"/>
</g>
<!-- HealthModule -->
<g id="node3" class="node">
<title>HealthModule</title>
<polygon fill="#8dd3c7" stroke="black" points="563.37,-84.8 560.37,-88.8 539.37,-88.8 536.37,-84.8 466.63,-84.8 466.63,-48.8 563.37,-48.8 563.37,-84.8"/>
<text text-anchor="middle" x="515" y="-62.6" font-family="Times,serif" font-size="14.00">HealthModule</text>
</g>
<!-- HealthModule&#45;&gt;AppModule -->
<g id="edge3" class="edge">
<title>HealthModule&#45;&gt;AppModule</title>
<path fill="none" stroke="black" d="M515,-84.83C515,-101.2 515,-122.8 515,-122.8 515,-122.8 456.9,-122.8 456.9,-122.8"/>
<polygon fill="black" stroke="black" points="456.9,-119.3 446.9,-122.8 456.9,-126.3 456.9,-119.3"/>
</g>
<!-- ListsModule -->
<g id="node4" class="node">
<title>ListsModule</title>
<polygon fill="#8dd3c7" stroke="black" points="448.28,-84.8 445.28,-88.8 424.28,-88.8 421.28,-84.8 361.72,-84.8 361.72,-48.8 448.28,-48.8 448.28,-84.8"/>
<text text-anchor="middle" x="405" y="-62.6" font-family="Times,serif" font-size="14.00">ListsModule</text>
</g>
<!-- ListsModule&#45;&gt;AppModule -->
<g id="edge4" class="edge">
<title>ListsModule&#45;&gt;AppModule</title>
<path fill="none" stroke="black" d="M405,-84.91C405,-84.91 405,-103.79 405,-103.79"/>
<polygon fill="black" stroke="black" points="401.5,-103.79 405,-113.79 408.5,-103.79 401.5,-103.79"/>
</g>
<!-- RoomsModule -->
<g id="node5" class="node">
<title>RoomsModule</title>
<polygon fill="#8dd3c7" stroke="black" points="343.73,-84.8 340.73,-88.8 319.73,-88.8 316.73,-84.8 244.27,-84.8 244.27,-48.8 343.73,-48.8 343.73,-84.8"/>
<text text-anchor="middle" x="294" y="-62.6" font-family="Times,serif" font-size="14.00">RoomsModule</text>
</g>
<!-- RoomsModule&#45;&gt;AppModule -->
<g id="edge5" class="edge">
<title>RoomsModule&#45;&gt;AppModule</title>
<path fill="none" stroke="black" d="M294,-84.83C294,-101.2 294,-122.8 294,-122.8 294,-122.8 353.04,-122.8 353.04,-122.8"/>
<polygon fill="black" stroke="black" points="353.04,-126.3 363.04,-122.8 353.04,-119.3 353.04,-126.3"/>
</g>
<!-- TasksModule -->
<g id="node6" class="node">
<title>TasksModule</title>
<polygon fill="#8dd3c7" stroke="black" points="226.21,-84.8 223.21,-88.8 202.21,-88.8 199.21,-84.8 133.79,-84.8 133.79,-48.8 226.21,-48.8 226.21,-84.8"/>
<text text-anchor="middle" x="180" y="-62.6" font-family="Times,serif" font-size="14.00">TasksModule</text>
</g>
<!-- TasksModule&#45;&gt;AppModule -->
<g id="edge6" class="edge">
<title>TasksModule&#45;&gt;AppModule</title>
<path fill="none" stroke="black" d="M180,-84.91C180,-104.14 180,-131.8 180,-131.8 180,-131.8 353.21,-131.8 353.21,-131.8"/>
<polygon fill="black" stroke="black" points="353.21,-135.3 363.21,-131.8 353.21,-128.3 353.21,-135.3"/>
</g>
<!-- UsersModule -->
<g id="node7" class="node">
<title>UsersModule</title>
<polygon fill="#8dd3c7" stroke="black" points="115.94,-84.8 112.94,-88.8 91.94,-88.8 88.94,-84.8 24.06,-84.8 24.06,-48.8 115.94,-48.8 115.94,-84.8"/>
<text text-anchor="middle" x="70" y="-62.6" font-family="Times,serif" font-size="14.00">UsersModule</text>
</g>
<!-- UsersModule&#45;&gt;AppModule -->
<g id="edge7" class="edge">
<title>UsersModule&#45;&gt;AppModule</title>
<path fill="none" stroke="black" d="M70,-85.09C70,-107.01 70,-140.8 70,-140.8 70,-140.8 353.25,-140.8 353.25,-140.8"/>
<polygon fill="black" stroke="black" points="353.25,-144.3 363.25,-140.8 353.25,-137.3 353.25,-144.3"/>
</g>
</g>
</svg>
